<?xml version="1.0" standalone="no"?><!DOCTYPE svg PUBLIC "-//W3C//DTD SVG 1.1//EN" "http://www.w3.org/Graphics/SVG/1.1/DTD/svg11.dtd"><svg t="1541744434000" class="icon" style="" viewBox="0 0 1424 1024" version="1.1" xmlns="http://www.w3.org/2000/svg" p-id="8970" xmlns:xlink="http://www.w3.org/1999/xlink" width="278.125" height="200"><defs><style type="text/css"></style></defs><path d="M155.385055 700.06873h20.818365c5.26247 0.605496 9.233809 5.084383 9.233809 10.418087 0 5.3248-3.971339 9.794783-9.233809 10.400279H155.385055v21.486191a10.4448 10.4448 0 0 1-10.418087 10.213287 10.569461 10.569461 0 0 1-10.809879-10.213287V720.896h-20.426574a10.4448 10.4448 0 0 1-10.275617-10.471513c0-5.716591 4.603548-10.346852 10.275617-10.346852h21.0944v-21.085496a10.435896 10.435896 0 0 1 10.346853-9.287235c5.289183 0 9.741357 3.998052 10.346852 9.287235v21.085496h-0.133565z m1237.944765-83.522782v-20.960835a10.106435 10.106435 0 0 0-3.072-7.390609 10.640696 10.640696 0 0 0-7.337183-2.947339 10.4448 10.4448 0 0 0-10.275617 10.337948v20.95193H1351.684185a9.322852 9.322852 0 0 0-7.212522 3.223374 9.8304 9.8304 0 0 0-2.938434 7.257044c0 5.680974 4.5056 10.329043 10.150956 10.471513h20.960835v20.95193c0 5.707687 4.594643 10.337948 10.275617 10.337948 5.698783 0 10.329043-4.603548 10.418087-10.337948v-20.95193h20.951931c5.743304 0 10.409183-4.692591 10.409182-10.471513 0-5.787826-4.665878-10.480417-10.418087-10.480418h-20.95193z m-625.387965 344.33113h-519.65774a20.097113 20.097113 0 0 1-14.416139-6.170713 20.907409 20.907409 0 0 1-4.576834-22.634852 20.693704 20.693704 0 0 1 18.992973-12.955826h93.442227a84.466643 84.466643 0 0 1-11.077009-41.63673v-605.139479a84.199513 84.199513 0 0 1 24.157496-58.964591 82.240557 82.240557 0 0 1 58.465947-24.442435h61.796174V167.846957c0.017809-22.1184 8.752974-43.319652 24.30887-58.955687a81.581635 81.581635 0 0 1 58.590609-24.576h495.366678c45.652591 0.071235 82.632348 37.327026 82.632348 83.255652v605.691548a82.712487 82.712487 0 0 1-11.085913 41.49426h114.127026a20.898504 20.898504 0 0 1 19.162156 20.8896 20.898504 20.898504 0 0 1-19.162156 20.880696h-247.478539v20.951931a82.721391 82.721391 0 0 1-10.952348 41.63673h10.952348a20.488904 20.488904 0 0 1 14.66546 6.054956c3.8912 3.917913 6.054957 9.224904 6.01934 14.754505a20.8896 20.8896 0 0 1-20.6848 20.95193H883.003837a41.556591 41.556591 0 0 1-6.268661 50.763687A41.92167 41.92167 0 0 1 847.502202 1024c-10.99687 0-21.530713-4.452174-29.232973-12.359235l-50.327374-50.754782z m75.553391-41.761391h65.669565a41.262748 41.262748 0 0 0 29.384348-12.572939 41.761391 41.761391 0 0 0 11.73593-29.865183V271.119583c0-22.251965-17.933357-40.28327-40.051756-40.28327h-498.287304c-22.127304 0-40.051757 18.031304-40.051757 40.28327v605.557982c0 22.928696 18.316243 41.601113 41.111374 41.894957h313.424139l-10.418087-10.738644a42.206609 42.206609 0 0 1-10.809878-40.292174l-19.482713-19.607374c-60.709843 45.768348-146.298435 36.31193-195.690852-21.619756-49.49927-57.913878-46.480696-144.357287 6.945391-198.629287a143.270957 143.270957 0 0 1 197.0176-7.390609c57.450852 50.336278 66.595617 136.726261 20.960835 198.095026l19.883408 20.00807a40.942191 40.942191 0 0 1 40.051757 10.747548l68.608 69.970365z m148.034783-104.358957h62.330434c22.884174-0.071235 41.387409-18.743652 41.387409-41.761391V167.846957c0.071235-22.9376-18.316243-41.618922-41.111374-41.761392H557.834863c-22.768417 0.213704-41.111374 18.850504-41.111374 41.761392v20.818365h391.648835a82.240557 82.240557 0 0 1 58.911165 24.353391 83.255652 83.255652 0 0 1 24.112974 59.311861v542.435061h0.133566zM263.902342 47.789635h30.43506a15.582609 15.582609 0 0 1 14.718887 7.3728c3.116522 5.075478 3.116522 11.486609 0 16.544278-3.116522 5.075478-8.815304 7.92487-14.718887 7.381704h-30.702191v31.156313a15.742887 15.742887 0 0 1-7.328278 14.807931 15.538087 15.538087 0 0 1-16.446331 0 15.742887 15.742887 0 0 1-7.328278-14.807931v-31.165217h-30.568626a15.431235 15.431235 0 0 1-11.077009-4.425461 15.778504 15.778504 0 0 1-3.419269-17.167582 15.618226 15.618226 0 0 1 14.496278-9.696835h30.835757V17.167583a15.742887 15.742887 0 0 1 7.328278-14.816835 15.538087 15.538087 0 0 1 16.44633 0c5.039861 3.143235 7.880348 8.877635 7.328279 14.816835v30.613147zM21.23215 939.925148a20.8896 20.8896 0 0 1 20.551235-20.809461h124.144417c5.476174 0 10.720835 2.19047 14.585322 6.099478a20.74713 20.74713 0 0 1 5.965913 14.709983 20.8896 20.8896 0 0 1-20.551235 20.95193H41.783385a20.631374 20.631374 0 0 1-14.416139-6.170713 20.48 20.48 0 0 1-6.001531-14.781217h-0.133565z m650.99687-134.295374c40.390122-40.862052 40.390122-106.869983 0-147.723131a102.738365 102.738365 0 0 0-73.015652-30.524104 102.738365 102.738365 0 0 0-73.015653 30.524104c-40.381217 40.853148-40.381217 106.861078 0 147.723131a102.738365 102.738365 0 0 0 73.015653 30.5152c27.407583 0 53.684313-10.979061 73.015652-30.5152z m-217.711305-491.528904a20.880696 20.880696 0 0 1 5.965914-14.763409 20.631374 20.631374 0 0 1 14.594226-6.188522h226.927304a20.898504 20.898504 0 0 1 19.153252 20.880696 20.898504 20.898504 0 0 1-19.153252 20.880695H475.077855a21.548522 21.548522 0 0 1-14.692174-6.037147 21.281391 21.281391 0 0 1-5.867966-14.781218z m0 104.216487a20.74713 20.74713 0 0 1 20.56014-20.818366h330.903374a20.898504 20.898504 0 0 1 19.162156 20.880696 20.898504 20.898504 0 0 1-19.162156 20.880696H475.21142a20.497809 20.497809 0 0 1-14.718887-6.099479 20.74713 20.74713 0 0 1-5.965913-14.843547z m0 104.350052a20.74713 20.74713 0 0 1 20.56014-20.818366h144.962782a20.74713 20.74713 0 0 1 20.693705 20.818366 20.74713 20.74713 0 0 1-20.693705 20.809461h-144.695652a20.62247 20.62247 0 0 1-14.718887-6.046053 20.880696 20.880696 0 0 1-6.108383-14.763408zM62.610655 397.490087a62.19687 62.19687 0 0 1-57.7536-38.351026 62.864696 62.864696 0 0 1 13.222956-68.34087 61.929739 61.929739 0 0 1 67.842226-13.748313 62.588661 62.588661 0 0 1 38.493496 57.851548 62.508522 62.508522 0 0 1-18.004591 44.192278 61.751652 61.751652 0 0 1-43.809392 18.396383z m0-31.289878c17.176487 0 31.102887-14.015443 31.102887-31.298783 0-17.274435-13.9264-31.289878-31.102887-31.289878-17.185391 0-31.102887 14.015443-31.102887 31.289878 0 17.283339 13.9264 31.298783 31.102887 31.298783z m1235.460452-76.203409a62.19687 62.19687 0 0 1-57.7536-38.351026 62.864696 62.864696 0 0 1 13.222956-68.34087 61.929739 61.929739 0 0 1 67.842226-13.748313 62.588661 62.588661 0 0 1 38.493496 57.860452 62.374957 62.374957 0 0 1-17.915548 44.308035 61.618087 61.618087 0 0 1-43.88953 18.405287v-0.133565z m0-31.289878a30.809043 30.809043 0 0 0 26.695235-15.716174 31.859757 31.859757 0 0 0 0-31.289878 30.880278 30.880278 0 0 0-37.433879-13.356522 31.183026 31.183026 0 0 0-19.714226 34.691339 31.022748 31.022748 0 0 0 30.45287 25.671235z" p-id="8971"></path></svg>